<svg width="136" height="27" viewBox="0 0 136 27" fill="none" xmlns="http://www.w3.org/2000/svg">
<path d="M12.0734 4.39058C12.5224 3.00861 14.4776 3.00861 14.9266 4.39058L16.1942 8.29179C16.395 8.90983 16.9709 9.32827 17.6208 9.32827H21.7227C23.1758 9.32827 23.78 11.1877 22.6044 12.0418L19.2858 14.4529C18.7601 14.8348 18.5401 15.5119 18.7409 16.1299L20.0085 20.0312C20.4575 21.4131 18.8758 22.5623 17.7003 21.7082L14.3817 19.2971C13.8559 18.9152 13.1441 18.9152 12.6183 19.2971L9.29975 21.7082C8.12418 22.5623 6.54246 21.4131 6.99148 20.0312L8.25907 16.1299C8.45988 15.5119 8.23989 14.8348 7.71416 14.4529L4.39559 12.0418C3.22002 11.1877 3.82418 9.32827 5.27726 9.32827H9.37925C10.0291 9.32827 10.605 8.90983 10.8058 8.2918L12.0734 4.39058Z" fill="#CC613E"/>
<path d="M39.0734 4.39058C39.5224 3.00861 41.4776 3.00861 41.9266 4.39058L43.1942 8.29179C43.395 8.90983 43.9709 9.32827 44.6208 9.32827H48.7227C50.1758 9.32827 50.78 11.1877 49.6044 12.0418L46.2858 14.4529C45.7601 14.8348 45.5401 15.5119 45.7409 16.1299L47.0085 20.0312C47.4575 21.4131 45.8758 22.5623 44.7003 21.7082L41.3817 19.2971C40.8559 18.9152 40.1441 18.9152 39.6183 19.2971L36.2997 21.7082C35.1242 22.5623 33.5425 21.4131 33.9915 20.0312L35.2591 16.1299C35.4599 15.5119 35.2399 14.8348 34.7142 14.4529L31.3956 12.0418C30.22 11.1877 30.8242 9.32827 32.2773 9.32827H36.3792C37.0291 9.32827 37.605 8.90983 37.8058 8.2918L39.0734 4.39058Z" fill="#CC613E"/>
<path d="M66.5785 4.2186C67.0372 2.85723 68.9628 2.85723 69.4215 4.2186L70.7992 8.30724C71.0047 8.91738 71.5768 9.32827 72.2206 9.32827H76.5596C78.0258 9.32827 78.6211 11.2154 77.4202 12.0568L74.0049 14.4495C73.46 14.8313 73.2317 15.5264 73.4442 16.157L74.7706 20.0937C75.2331 21.4661 73.6746 22.6321 72.4885 21.8011L68.8607 19.2595C68.344 18.8975 67.656 18.8975 67.1393 19.2595L63.5115 21.8011C62.3254 22.6321 60.7669 21.4661 61.2294 20.0937L62.5558 16.157C62.7683 15.5264 62.54 14.8313 61.9951 14.4495L58.5798 12.0568C57.3789 11.2154 57.9742 9.32827 59.4404 9.32827H63.7794C64.4232 9.32827 64.9953 8.91738 65.2008 8.30724L66.5785 4.2186Z" fill="#CC613E"/>
<path d="M94.0734 4.39058C94.5224 3.00861 96.4776 3.00861 96.9266 4.39058L98.1942 8.29179C98.395 8.90983 98.9709 9.32827 99.6208 9.32827H103.723C105.176 9.32827 105.78 11.1877 104.604 12.0418L101.286 14.4529C100.76 14.8348 100.54 15.5119 100.741 16.1299L102.009 20.0312C102.458 21.4131 100.876 22.5623 99.7003 21.7082L96.3817 19.2971C95.8559 18.9152 95.1441 18.9152 94.6183 19.2971L91.2997 21.7082C90.1242 22.5623 88.5425 21.4131 88.9915 20.0312L90.2591 16.1299C90.4599 15.5119 90.2399 14.8348 89.7142 14.4529L86.3956 12.0418C85.22 11.1877 85.8242 9.32827 87.2773 9.32827H91.3792C92.0291 9.32827 92.605 8.90983 92.8058 8.2918L94.0734 4.39058Z" fill="#CC613E"/>
<path d="M121.073 4.39058C121.522 3.00861 123.478 3.00861 123.927 4.39058L125.194 8.29179C125.395 8.90983 125.971 9.32827 126.621 9.32827H130.723C132.176 9.32827 132.78 11.1877 131.604 12.0418L128.286 14.4529C127.76 14.8348 127.54 15.5119 127.741 16.1299L129.009 20.0312C129.458 21.4131 127.876 22.5623 126.7 21.7082L123.382 19.2971C122.856 18.9152 122.144 18.9152 121.618 19.2971L118.3 21.7082C117.124 22.5623 115.542 21.4131 115.991 20.0312L117.259 16.1299C117.46 15.5119 117.24 14.8348 116.714 14.4529L113.396 12.0418C112.22 11.1877 112.824 9.32827 114.277 9.32827H118.379C119.029 9.32827 119.605 8.90983 119.806 8.2918L121.073 4.39058Z" fill="#CC613E"/>
</svg>
