<svg width="24" height="25" viewBox="0 0 24 25" fill="none" xmlns="http://www.w3.org/2000/svg">
<path d="M12 14.7844C10.875 14.7844 9.9 13.8844 9.9 12.6844C9.9 11.5594 10.8 10.5844 12 10.5844C13.125 10.5844 14.1 11.4844 14.1 12.6844C14.1 13.8094 13.125 14.7844 12 14.7844Z" fill="#F6F5F5"/>
<path fill-rule="evenodd" clip-rule="evenodd" d="M14.55 7.58445H9.45C8.85 7.65945 8.55 7.73445 8.325 7.80945C8.025 7.88445 7.8 8.03445 7.575 8.25945C7.39696 8.43749 7.31284 8.61553 7.21116 8.83073C7.18437 8.88744 7.15628 8.94689 7.125 9.00945C7.1134 9.04425 7.1 9.08086 7.08564 9.12009C7.00718 9.33445 6.9 9.62727 6.9 10.1344V15.2344C6.975 15.8344 7.05 16.1344 7.125 16.3594C7.2 16.6594 7.35 16.8844 7.575 17.1094C7.75304 17.2875 7.93108 17.3716 8.14628 17.4733C8.20304 17.5001 8.26239 17.5281 8.325 17.5594C8.35981 17.571 8.39641 17.5844 8.43564 17.5988C8.65 17.6773 8.94282 17.7844 9.45 17.7844H14.55C15.15 17.7094 15.45 17.6344 15.675 17.5594C15.975 17.4844 16.2 17.3344 16.425 17.1094C16.603 16.9314 16.6872 16.7534 16.7888 16.5382C16.8156 16.4814 16.8437 16.422 16.875 16.3594C16.8866 16.3246 16.9 16.288 16.9144 16.2488C16.9928 16.0344 17.1 15.7416 17.1 15.2344V10.1344C17.025 9.53445 16.95 9.23445 16.875 9.00945C16.8 8.70945 16.65 8.48445 16.425 8.25945C16.247 8.08141 16.0689 7.99729 15.8537 7.89561C15.797 7.86883 15.7375 7.8407 15.675 7.80945C15.6402 7.79784 15.6036 7.78445 15.5644 7.77009C15.35 7.69163 15.0572 7.58445 14.55 7.58445ZM12 9.45945C10.2 9.45945 8.775 10.8844 8.775 12.6844C8.775 14.4844 10.2 15.9094 12 15.9094C13.8 15.9094 15.225 14.4844 15.225 12.6844C15.225 10.8844 13.8 9.45945 12 9.45945ZM16.05 9.38445C16.05 9.79866 15.7142 10.1344 15.3 10.1344C14.8858 10.1344 14.55 9.79866 14.55 9.38445C14.55 8.97023 14.8858 8.63445 15.3 8.63445C15.7142 8.63445 16.05 8.97023 16.05 9.38445Z" fill="#F6F5F5"/>
<path fill-rule="evenodd" clip-rule="evenodd" d="M0 4.43445C0 2.36338 1.67893 0.684448 3.75 0.684448H20.25C22.3211 0.684448 24 2.36338 24 4.43445V20.9344C24 23.0055 22.3211 24.6844 20.25 24.6844H3.75C1.67893 24.6844 0 23.0055 0 20.9344V4.43445ZM9.45 6.45945H14.55C15.225 6.53445 15.675 6.60945 16.05 6.75945C16.5 6.98445 16.8 7.13445 17.175 7.50945C17.55 7.88445 17.775 8.25945 17.925 8.63445C18.075 9.00945 18.225 9.45945 18.225 10.1344V15.2344C18.15 15.9094 18.075 16.3594 17.925 16.7344C17.7 17.1844 17.55 17.4844 17.175 17.8594C16.8 18.2344 16.425 18.4594 16.05 18.6094C15.675 18.7594 15.225 18.9094 14.55 18.9094H9.45C8.775 18.8344 8.325 18.7594 7.95 18.6094C7.5 18.3844 7.2 18.2344 6.825 17.8594C6.45 17.4844 6.225 17.1094 6.075 16.7344C5.925 16.3594 5.775 15.9094 5.775 15.2344V10.1344C5.85 9.45945 5.925 9.00945 6.075 8.63445C6.3 8.18445 6.45 7.88445 6.825 7.50945C7.2 7.13445 7.575 6.90945 7.95 6.75945C8.325 6.60945 8.775 6.45945 9.45 6.45945Z" fill="#F6F5F5"/>
</svg>
