<svg width="24" height="25" viewBox="0 0 24 25" fill="none" xmlns="http://www.w3.org/2000/svg">
<path fill-rule="evenodd" clip-rule="evenodd" d="M3.75 0.684448H20.25C22.3211 0.684448 24 2.36338 24 4.43445V20.9344C24 23.0055 22.3211 24.6844 20.25 24.6844H3.75C1.67893 24.6844 0 23.0055 0 20.9344V4.43445C0 2.36338 1.67893 0.684448 3.75 0.684448ZM12.5189 9.68998C11.4441 10.137 9.29616 11.0622 6.07494 12.4657C5.55186 12.6737 5.27785 12.8772 5.25291 13.0762C5.21075 13.4124 5.63186 13.5448 6.2053 13.7252C6.28331 13.7497 6.36413 13.7751 6.44699 13.802C7.01117 13.9854 7.77009 14.2 8.16462 14.2085C8.5225 14.2162 8.92193 14.0687 9.36292 13.7659C12.3726 11.7342 13.9262 10.7074 14.0238 10.6852C14.0926 10.6696 14.1879 10.65 14.2525 10.7074C14.3171 10.7648 14.3108 10.8736 14.3039 10.9028C14.2622 11.0806 12.6092 12.6174 11.7538 13.4127C11.4871 13.6606 11.2979 13.8365 11.2593 13.8766C11.1726 13.9666 11.0844 14.0517 10.9995 14.1335C10.4754 14.6388 10.0823 15.0177 11.0213 15.6365C11.4725 15.9338 11.8336 16.1797 12.1938 16.425C12.5872 16.6929 12.9795 16.9601 13.4872 17.2929C13.6165 17.3777 13.7401 17.4657 13.8604 17.5515C14.3182 17.8779 14.7295 18.1711 15.2376 18.1243C15.5329 18.0972 15.8379 17.8195 15.9928 16.9915C16.3588 15.0346 17.0784 10.7945 17.2447 9.0473C17.2592 8.89422 17.2409 8.69831 17.2262 8.61231C17.2115 8.5263 17.1807 8.40377 17.0689 8.31306C16.9365 8.20564 16.7322 8.18299 16.6407 8.18452C16.2251 8.19192 15.5875 8.41363 12.5189 9.68998Z" fill="#F6F5F5"/>
</svg>
