<svg width="24" height="25" viewBox="0 0 24 25" fill="none" xmlns="http://www.w3.org/2000/svg">
<path fill-rule="evenodd" clip-rule="evenodd" d="M0 4.43445C0 2.36338 1.67893 0.684448 3.75 0.684448H20.25C22.3211 0.684448 24 2.36338 24 4.43445V20.9344C24 23.0055 22.3211 24.6844 20.25 24.6844H3.75C1.67893 24.6844 0 23.0055 0 20.9344V4.43445ZM16.575 9.30945C17.1 9.23445 17.55 9.15945 18 8.93445C17.7 9.45945 17.25 9.90945 16.725 10.2094C16.875 13.7344 14.325 17.5594 9.75 17.5594C8.4 17.5594 7.125 17.1094 6 16.4344C7.275 16.5844 8.625 16.2094 9.525 15.5344C8.4 15.5344 7.5 14.7844 7.2 13.8094C7.575 13.8844 7.95 13.8094 8.325 13.7344C7.2 13.4344 6.375 12.3844 6.375 11.2594C6.75 11.4094 7.125 11.5594 7.5 11.5594C6.45 10.8094 6.075 9.38445 6.75 8.25945C8.025 9.75945 9.825 10.7344 11.85 10.8094C11.475 9.30945 12.675 7.80945 14.25 7.80945C14.925 7.80945 15.6 8.10945 16.05 8.55945C16.65 8.40945 17.175 8.25945 17.625 7.95945C17.475 8.55945 17.1 9.00945 16.575 9.30945Z" fill="#F6F5F5"/>
</svg>
