<svg width="24" height="25" viewBox="0 0 24 25" fill="none" xmlns="http://www.w3.org/2000/svg">
<path fill-rule="evenodd" clip-rule="evenodd" d="M9.45 16.9594C10.2 17.4095 11.1 17.6344 12 17.6344C14.775 17.6344 16.95 15.3844 16.95 12.7594C16.95 11.4095 16.5 10.2094 15.525 9.23445C14.55 8.33445 13.35 7.80945 12 7.80945C9.3 7.80945 7.05 10.0594 7.05 12.7594C7.05 13.6595 7.275 14.5594 7.8 15.3844L7.95 15.6094L7.425 17.4095L9.3 16.8844L9.45 16.9594ZM13.65 13.4344C13.8 13.4344 14.55 13.8094 14.7 13.8844C14.7234 13.8961 14.7467 13.906 14.7698 13.9157C14.8949 13.9685 15.0117 14.0178 15.075 14.3344C15.15 14.3344 15.15 14.6344 15 15.0094C14.925 15.3094 14.325 15.6844 14.025 15.6844C13.9742 15.6844 13.9255 15.6888 13.8735 15.6934C13.6186 15.7159 13.284 15.7455 12.225 15.3094C10.9106 14.7837 9.99938 13.5094 9.74349 13.1515C9.70735 13.101 9.68428 13.0687 9.675 13.0594C9.66222 13.0339 9.63641 12.9932 9.60236 12.9394C9.43644 12.6774 9.075 12.1068 9.075 11.4844C9.075 10.7344 9.44999 10.3594 9.59999 10.2094C9.74999 10.0594 9.89999 10.0594 9.97499 10.0594H10.275C10.35 10.0594 10.5 10.0594 10.575 10.2845C10.725 10.5844 11.025 11.3344 11.025 11.4095C11.025 11.4345 11.0333 11.4594 11.0417 11.4844C11.0583 11.5344 11.075 11.5844 11.025 11.6344C10.9875 11.6719 10.9688 11.7094 10.95 11.7469C10.9313 11.7845 10.9125 11.822 10.875 11.8594L10.65 12.0844C10.575 12.1595 10.5 12.2344 10.575 12.3844C10.65 12.5345 10.95 13.0594 11.4 13.4344C11.9063 13.8775 12.3058 14.0535 12.5084 14.1427C12.5458 14.1592 12.5766 14.1727 12.6 14.1844C12.75 14.1844 12.825 14.1844 12.9 14.1094C12.9375 14.0345 13.0313 13.9219 13.125 13.8094C13.2187 13.6969 13.3125 13.5844 13.35 13.5094C13.425 13.3594 13.5 13.3594 13.65 13.4344Z" fill="#F6F5F5"/>
<path fill-rule="evenodd" clip-rule="evenodd" d="M0 4.43445C0 2.36338 1.67893 0.684448 3.75 0.684448H20.25C22.3211 0.684448 24 2.36338 24 4.43445V20.9344C24 23.0055 22.3211 24.6844 20.25 24.6844H3.75C1.67893 24.6844 0 23.0055 0 20.9344V4.43445ZM12 6.68445C13.575 6.68445 15.075 7.28445 16.2 8.40945C17.325 9.53445 18 11.0345 18 12.6094C18 15.9095 15.3 18.6094 12 18.6094C11.025 18.6094 10.05 18.3094 9.15001 17.8594L6 18.6844L6.825 15.6844C6.30001 14.7845 6 13.7344 6 12.6844C6 9.38445 8.7 6.68445 12 6.68445Z" fill="#F6F5F5"/>
</svg>
